<?xml version="1.0" encoding="utf-8"?>
<!-- Generator: Adobe Illustrator 25.4.1, SVG Export Plug-In . SVG Version: 6.00 Build 0)  -->
<svg version="1.1" id="Layer_1" xmlns="http://www.w3.org/2000/svg" xmlns:xlink="http://www.w3.org/1999/xlink" x="0px" y="0px"
	 viewBox="0 0 189.82 219.19" style="enable-background:new 0 0 189.82 219.19;" xml:space="preserve">
<style type="text/css">
	.st0{fill:#FFFFFF;}
</style>
<polygon points="94.91,0 189.82,54.8 189.82,164.39 94.91,219.19 0,164.39 0,54.8 "/>
<polygon points="-885.09,0 -790.18,54.8 -790.18,164.39 -885.09,219.19 -980,164.39 -980,54.8 "/>
<polygon points="-1865.09,13 -1770.18,67.8 -1770.18,177.39 -1865.09,232.19 -1960,177.39 -1960,67.8 "/>
<g>
	<path class="st0" d="M-1918.73,167.05l-4.14-5.94c-0.36-0.72-0.36-1.62,0.18-2.16l14.94-17.64h-7.38c-1.08,0-1.8-0.72-1.8-1.8
		v-12.96c0-1.08,0.72-1.8,1.8-1.8h10.44c-1.26-4.32-1.98-9.18-1.98-13.68c0-23.22,19.08-42.48,42.66-42.48
		c23.22,0,42.48,19.26,42.48,42.48c0,4.5-0.54,9.36-1.98,13.68h10.44c1.08,0,1.8,0.72,1.8,1.8v12.96c0,1.08-0.72,1.8-1.8,1.8h-9.18
		l14.76,17.64c0.36,0.54,0.54,1.44,0,2.16l-4.14,5.94c-0.54,0.72-1.44,0.9-2.34,0.54l-8.64-4.5h-85.14l-8.64,4.5
		C-1917.11,167.95-1918.19,167.77-1918.73,167.05z M-1891.37,141.31h-11.88l-15.84,18.72l2.52,3.6l30.42-16.02L-1891.37,141.31z
		 M-1913.33,128.35v9.36h98.46v-9.36H-1913.33z M-1900.91,124.75h73.62c1.44-4.32,2.16-9,2.16-13.68
		c0-21.42-17.46-38.88-38.88-38.88c-21.42,0-39.06,17.46-39.06,38.88C-1903.07,115.75-1902.71,120.61-1900.91,124.75z
		 M-1883.63,150.49l-17.1,9h24.48L-1883.63,150.49z M-1886.69,141.31l15.12,18.18h12.96l15.12-18.18H-1886.69z M-1846.55,150.49
		l-7.38,9h24.48L-1846.55,150.49z M-1826.93,141.31h-11.88l-5.4,6.3l30.6,16.02l2.52-3.42L-1826.93,141.31z"/>
</g>
<g>
	<path class="st0" d="M39.83,150.09c-0.9,0-1.8-0.9-1.8-1.8c0-0.9,0.9-1.8,1.8-1.8h9v-11.34h-9c-1.08,0-1.8-0.72-1.8-1.8V97.89
		c0-1.08,0.72-1.8,1.8-1.8h11.88c0.9-25.56,19.98-39.6,43.2-39.6c23.22,0,42.3,14.04,43.2,39.6h11.88c1.08,0,1.8,0.72,1.8,1.8v35.46
		c0,1.08-0.72,1.8-1.8,1.8h-9v11.34h9c0.9,0,1.8,0.9,1.8,1.8c0,0.9-0.9,1.8-1.8,1.8H39.83z M41.63,99.69v31.86h106.56V99.69H41.63z
		 M52.43,135.15v11.34h11.52v-11.34H52.43z M55.31,96.09h79.2c-0.9-23.22-18.54-36-39.6-36C73.85,60.09,56.21,72.87,55.31,96.09z
		 M67.55,135.15v11.34h18v-11.34H67.55z M89.15,135.15v11.34h11.52v-11.34H89.15z M137.93,122.91H94.01c-0.9,0-1.8-0.9-1.8-1.8
		c0-0.9,0.9-1.8,1.8-1.8h43.92c0.9,0,1.8,0.9,1.8,1.8C139.73,122.01,138.83,122.91,137.93,122.91z M104.27,135.15v11.34h18v-11.34
		H104.27z M125.87,135.15v11.34h11.52v-11.34H125.87z"/>
</g>
<g>
	<path class="st0" d="M-937.11,150.09c-1.08,0-1.8-0.72-1.8-1.8v-21.78h-23.76c-0.9,0-1.8-0.9-1.8-1.8s0.9-1.8,1.8-1.8h13.5v-11.7
		c0-1.08,0.72-1.8,1.8-1.8h7.02c5.94-25.02,28.44-43.56,55.08-43.74c0.18-0.18,0.36-0.18,0.72,0c26.64,0.18,48.78,18.9,54.72,43.74
		h7.02c1.08,0,1.8,0.72,1.8,1.8v11.7h13.5c0.9,0,1.8,0.9,1.8,1.8s-0.9,1.8-1.8,1.8h-23.76v21.78c0,1.08-0.72,1.8-1.8,1.8H-937.11z
		 M-945.57,113.01v9.9h120.96v-9.9H-945.57z M-888.69,69.45c-23.04,1.44-42.3,18.18-47.88,39.96h19.26L-888.69,69.45z
		 M-935.31,126.51v19.98h48.42v-19.98H-935.31z M-886.89,73.05l-25.92,36.36h25.92V73.05z M-883.29,69.27v40.14h49.68
		C-839.19,87.09-859.35,70.17-883.29,69.27z M-883.29,126.51v19.98h8.1v-19.98H-883.29z M-871.59,126.51v19.98h36.72v-19.98H-871.59
		z"/>
</g>
</svg>
