<svg xmlns="http://www.w3.org/2000/svg"><symbol id="mecha-stilts" viewBox="0 0 189.82 219.19"><path d="M104.27 135.15h18v11.34h-18zm-15.12 0h11.52v11.34H89.15zm-36.72 0h11.52v11.34H52.43zm42.48-75.06c-21.06 0-38.7 12.78-39.6 36h79.2c-.9-23.22-18.51-36-39.6-36zm-27.36 75.06h18v11.34h-18zm-25.92-3.6h106.56V99.69H41.63zM94 119.31h43.92a1.8 1.8 0 0 1 0 3.6H94a1.8 1.8 0 0 1 0-3.6zm31.87 15.84h11.52v11.34h-11.52z"/><path d="M94.91 0L0 54.8v109.59l94.91 54.8 94.91-54.8V54.8zm56.88 133.35a1.7 1.7 0 0 1-1.8 1.8h-9v11.34h9a1.8 1.8 0 0 1 0 3.6H39.83a1.8 1.8 0 1 1 0-3.6h9v-11.34h-9a1.7 1.7 0 0 1-1.8-1.8V97.89a1.7 1.7 0 0 1 1.8-1.8h11.88c.9-25.56 20-39.6 43.2-39.6s42.3 14 43.2 39.6H150a1.7 1.7 0 0 1 1.8 1.8z"/></symbol><symbol id="super-domes" viewBox="0 0 189.82 219.19"><path d="M91.31 69.45c-23 1.44-42.3 18.18-47.88 40h19.26zm1.8 39.96V73.05l-25.92 36.36h25.92zm3.6-40.14v40.14h49.68a53.5 53.5 0 0 0-49.68-40.14zm-52.02 57.24h48.42v19.98H44.69z"/><path d="M94.91 0L0 54.8v109.59l94.91 54.8 94.91-54.8V54.8zm77.58 126.51h-23.76v21.78a1.7 1.7 0 0 1-1.8 1.8h-104a1.7 1.7 0 0 1-1.8-1.8v-21.78h-23.8a1.8 1.8 0 1 1 0-3.6h13.5v-11.7a1.7 1.7 0 0 1 1.8-1.8h7a57.07 57.07 0 0 1 55.1-43.74c.18-.18.36-.18.72 0a56.85 56.85 0 0 1 54.72 43.74h7a1.7 1.7 0 0 1 1.8 1.8v11.7h13.5a1.8 1.8 0 0 1 0 3.6z"/><path d="M34.43 113.01h120.96v9.9H34.43zm62.28 13.5h8.1v19.98h-8.1zm11.7 0h36.72v19.98h-36.72z"/></symbol><symbol id="space-bubbles" viewBox="0 0 189.82 219.19"><path d="M68.63 128.31H56.75l-15.84 18.72 2.52 3.6 30.42-16.02-5.22-6.3zm-21.96-12.96h98.46v9.36H46.67zm86.04-3.6a43.52 43.52 0 0 0 2.16-13.68 39 39 0 0 0-77.94 0c0 4.68.36 9.54 2.16 13.68zm-73.44 34.74h24.48l-7.38-9-17.1 9zm46.8 0h24.48l-17.1-9-7.38 9z"/><path d="M94.91 0L0 54.8v109.59l94.91 54.8 94.91-54.8V54.8zm57.6 148.11l-4.14 5.94a1.91 1.91 0 0 1-2.34.54l-8.64-4.5H52.25l-8.64 4.5a2 2 0 0 1-2.34-.54l-4.14-5.94a1.89 1.89 0 0 1 .18-2.16l14.94-17.64h-7.38a1.7 1.7 0 0 1-1.8-1.8v-13a1.7 1.7 0 0 1 1.8-1.8h10.44a50.28 50.28 0 0 1-2-13.68 42.57 42.57 0 0 1 85.14 0 44.17 44.17 0 0 1-2 13.68h10.44a1.7 1.7 0 0 1 1.8 1.8v13a1.7 1.7 0 0 1-1.8 1.8h-9.18l14.8 17.69a1.89 1.89 0 0 1 0 2.11z"/><path d="M73.31 128.31l15.12 18.18h12.96l15.12-18.18h-43.2zm47.88 0l-5.4 6.3 30.6 16.02 2.52-3.42-15.84-18.9h-11.88z"/></symbol></svg>