<svg xmlns="http://www.w3.org/2000/svg" viewBox="0 0 189.82 219.19" width="189.82" height="219.19"><path d="M104.27 135.15h18v11.34h-18zm-15.12 0h11.52v11.34H89.15zm-36.72 0h11.52v11.34H52.43zm42.48-75.06c-21.06 0-38.7 12.78-39.6 36h79.2c-.9-23.22-18.51-36-39.6-36zm-27.36 75.06h18v11.34h-18zm-25.92-3.6h106.56V99.69H41.63zM94 119.31h43.92a1.8 1.8 0 0 1 0 3.6H94a1.8 1.8 0 0 1 0-3.6zm31.87 15.84h11.52v11.34h-11.52z"/><path d="M94.91 0L0 54.8v109.59l94.91 54.8 94.91-54.8V54.8zm56.88 133.35a1.7 1.7 0 0 1-1.8 1.8h-9v11.34h9a1.8 1.8 0 0 1 0 3.6H39.83a1.8 1.8 0 1 1 0-3.6h9v-11.34h-9a1.7 1.7 0 0 1-1.8-1.8V97.89a1.7 1.7 0 0 1 1.8-1.8h11.88c.9-25.56 20-39.6 43.2-39.6s42.3 14 43.2 39.6H150a1.7 1.7 0 0 1 1.8 1.8z"/></svg>