<svg xmlns="http://www.w3.org/2000/svg" id="Layer_1" viewBox="0 0 189.82 219.19" width="189.82" height="219.19"><path d="M68.63 128.31H56.75l-15.84 18.72 2.52 3.6 30.42-16.02-5.22-6.3zm-21.96-12.96h98.46v9.36H46.67zm86.04-3.6a43.52 43.52 0 0 0 2.16-13.68 39 39 0 0 0-77.94 0c0 4.68.36 9.54 2.16 13.68zm-73.44 34.74h24.48l-7.38-9-17.1 9zm46.8 0h24.48l-17.1-9-7.38 9z"/><path d="M94.91 0L0 54.8v109.59l94.91 54.8 94.91-54.8V54.8zm57.6 148.11l-4.14 5.94a1.91 1.91 0 0 1-2.34.54l-8.64-4.5H52.25l-8.64 4.5a2 2 0 0 1-2.34-.54l-4.14-5.94a1.89 1.89 0 0 1 .18-2.16l14.94-17.64h-7.38a1.7 1.7 0 0 1-1.8-1.8v-13a1.7 1.7 0 0 1 1.8-1.8h10.44a50.28 50.28 0 0 1-2-13.68 42.57 42.57 0 0 1 85.14 0 44.17 44.17 0 0 1-2 13.68h10.44a1.7 1.7 0 0 1 1.8 1.8v13a1.7 1.7 0 0 1-1.8 1.8h-9.18l14.8 17.69a1.89 1.89 0 0 1 0 2.11z"/><path d="M73.31 128.31l15.12 18.18h12.96l15.12-18.18h-43.2zm47.88 0l-5.4 6.3 30.6 16.02 2.52-3.42-15.84-18.9h-11.88z"/></svg>