<svg height="219.19" viewBox="0 0 189.82 219.19" width="189.82" xmlns="http://www.w3.org/2000/svg"><path d="m94.91 0 94.91 54.8v109.59l-94.91 54.8-94.91-54.8v-109.59z"/><path d="m41.27 154.05-4.14-5.94a1.89 1.89 0 0 1 .18-2.16l14.94-17.64h-7.38a1.7 1.7 0 0 1 -1.8-1.8v-13a1.7 1.7 0 0 1 1.8-1.8h10.44a50.28 50.28 0 0 1 -2-13.68 42.57 42.57 0 0 1 85.14 0 44.17 44.17 0 0 1 -2 13.68h10.44a1.7 1.7 0 0 1 1.8 1.8v13a1.7 1.7 0 0 1 -1.8 1.8h-9.18l14.8 17.69a1.89 1.89 0 0 1 0 2.16l-4.14 5.94a1.91 1.91 0 0 1 -2.34.54l-8.64-4.5h-85.14l-8.64 4.5a2 2 0 0 1 -2.34-.59zm27.36-25.74h-11.88l-15.84 18.69 2.52 3.6 30.42-16zm-22-13v9.36h98.46v-9.36zm12.42-3.6h73.62a43.52 43.52 0 0 0 2.16-13.68 39 39 0 0 0 -77.94 0c.04 4.72.4 9.58 2.2 13.72zm17.28 25.74-17.1 9h24.52zm-3.06-9.18 15.12 18.18h13l15.12-18.18zm40.14 9.18-7.38 9h24.48zm19.62-9.18h-11.84l-5.4 6.3 30.6 16 2.52-3.42z" fill="#fff"/></svg>