<svg xmlns="http://www.w3.org/2000/svg"><symbol id="mars-icons" viewBox="0 0 189.82 219.19"><path d="M94.91 0l94.91 54.8v109.59l-94.91 54.8L0 164.39V54.8zm-980 0l94.91 54.8v109.59l-94.91 54.8-94.91-54.8V54.8zm-980 13l94.91 54.8v109.59l-94.91 54.8-94.91-54.8V67.8z"/><path fill="#fff" d="M-1918.73 167.05l-4.14-5.94c-.36-.72-.36-1.62.18-2.16l14.94-17.64h-7.38c-1.08 0-1.8-.72-1.8-1.8v-12.96c0-1.08.72-1.8 1.8-1.8h10.44c-1.26-4.32-1.98-9.18-1.98-13.68 0-23.22 19.08-42.48 42.66-42.48 23.22 0 42.48 19.26 42.48 42.48 0 4.5-.54 9.36-1.98 13.68h10.44c1.08 0 1.8.72 1.8 1.8v12.96c0 1.08-.72 1.8-1.8 1.8h-9.18l14.76 17.64c.36.54.54 1.44 0 2.16l-4.14 5.94c-.54.72-1.44.9-2.34.54l-8.64-4.5h-85.14l-8.64 4.5c-.72.36-1.8.18-2.34-.54zm27.36-25.74h-11.88l-15.84 18.72 2.52 3.6 30.42-16.02zm-21.96-12.96v9.36h98.46v-9.36zm12.42-3.6h73.62c1.44-4.32 2.16-9 2.16-13.68 0-21.42-17.46-38.88-38.88-38.88s-39.06 17.46-39.06 38.88c0 4.68.36 9.54 2.16 13.68zm17.28 25.74l-17.1 9h24.48zm-3.06-9.18l15.12 18.18h12.96l15.12-18.18zm40.14 9.18l-7.38 9h24.48zm19.62-9.18h-11.88l-5.4 6.3 30.6 16.02 2.52-3.42zm1866.76 8.78c-.9 0-1.8-.9-1.8-1.8s.9-1.8 1.8-1.8h9v-11.34h-9c-1.08 0-1.8-.72-1.8-1.8V97.89c0-1.08.72-1.8 1.8-1.8h11.88c.9-25.56 19.98-39.6 43.2-39.6s42.3 14.04 43.2 39.6h11.88c1.08 0 1.8.72 1.8 1.8v35.46c0 1.08-.72 1.8-1.8 1.8h-9v11.34h9c.9 0 1.8.9 1.8 1.8s-.9 1.8-1.8 1.8zm1.8-50.4v31.86h106.56V99.69zm10.8 35.46v11.34h11.52v-11.34zm2.88-39.06h79.2c-.9-23.22-18.54-36-39.6-36s-38.7 12.78-39.6 36zm12.24 39.06v11.34h18v-11.34zm21.6 0v11.34h11.52v-11.34zm48.78-12.24H94.01c-.9 0-1.8-.9-1.8-1.8s.9-1.8 1.8-1.8h43.92c.9 0 1.8.9 1.8 1.8s-.9 1.8-1.8 1.8zm-33.66 12.24v11.34h18v-11.34zm21.6 0v11.34h11.52v-11.34zm-1062.98 14.94c-1.08 0-1.8-.72-1.8-1.8v-21.78h-23.76c-.9 0-1.8-.9-1.8-1.8s.9-1.8 1.8-1.8h13.5v-11.7c0-1.08.72-1.8 1.8-1.8h7.02c5.94-25.02 28.44-43.56 55.08-43.74.18-.18.36-.18.72 0 26.64.18 48.78 18.9 54.72 43.74h7.02c1.08 0 1.8.72 1.8 1.8v11.7h13.5c.9 0 1.8.9 1.8 1.8s-.9 1.8-1.8 1.8h-23.76v21.78c0 1.08-.72 1.8-1.8 1.8zm-8.46-37.08v9.9h120.96v-9.9zm56.88-43.56c-23.04 1.44-42.3 18.18-47.88 39.96h19.26zm-46.62 57.06v19.98h48.42v-19.98zm48.42-53.46l-25.92 36.36h25.92zm3.6-3.78v40.14h49.68c-5.58-22.32-25.74-39.24-49.68-40.14zm0 57.24v19.98h8.1v-19.98zm11.7 0v19.98h36.72v-19.98z"/></symbol></svg>