<svg height="219.19" viewBox="0 0 189.82 219.19" width="189.82" xmlns="http://www.w3.org/2000/svg"><path d="m94.91 0 94.91 54.8v109.59l-94.91 54.8-94.91-54.8v-109.59z"/><path d="m42.89 150.09a1.7 1.7 0 0 1 -1.8-1.8v-21.78h-23.76a1.8 1.8 0 1 1 0-3.6h13.5v-11.7a1.7 1.7 0 0 1 1.8-1.8h7a57.07 57.07 0 0 1 55.1-43.74c.18-.18.36-.18.72 0a56.85 56.85 0 0 1 54.72 43.74h7a1.7 1.7 0 0 1 1.8 1.8v11.7h13.5a1.8 1.8 0 0 1 0 3.6h-23.74v21.78a1.7 1.7 0 0 1 -1.8 1.8zm-8.46-37.09v9.9h121v-9.9zm56.88-43.55c-23 1.44-42.3 18.18-47.88 40h19.26zm-46.62 57.06v20h48.42v-20zm48.42-53.46-25.92 36.36h25.92zm3.6-3.78v40.14h49.68a53.5 53.5 0 0 0 -49.68-40.14zm0 57.24v20h8.1v-20zm11.7 0v20h36.72v-20z" fill="#fff"/></svg>