<svg xmlns="http://www.w3.org/2000/svg" id="Layer_1" viewBox="0 0 189.82 219.19" width="189.82" height="219.19"><path d="M91.31 69.45c-23 1.44-42.3 18.18-47.88 40h19.26zm1.8 39.96V73.05l-25.92 36.36h25.92zm3.6-40.14v40.14h49.68a53.5 53.5 0 0 0-49.68-40.14zm-52.02 57.24h48.42v19.98H44.69z"/><path d="M94.91 0L0 54.8v109.59l94.91 54.8 94.91-54.8V54.8zm77.58 126.51h-23.76v21.78a1.7 1.7 0 0 1-1.8 1.8h-104a1.7 1.7 0 0 1-1.8-1.8v-21.78h-23.8a1.8 1.8 0 1 1 0-3.6h13.5v-11.7a1.7 1.7 0 0 1 1.8-1.8h7a57.07 57.07 0 0 1 55.1-43.74c.18-.18.36-.18.72 0a56.85 56.85 0 0 1 54.72 43.74h7a1.7 1.7 0 0 1 1.8 1.8v11.7h13.5a1.8 1.8 0 0 1 0 3.6z"/><path d="M34.43 113.01h120.96v9.9H34.43zm62.28 13.5h8.1v19.98h-8.1zm11.7 0h36.72v19.98h-36.72z"/></svg>